<mxfile host="Electron" modified="2023-07-24T00:04:57.915Z" agent="Mozilla/5.0 (X11; Linux x86_64) AppleWebKit/537.36 (KHTML, like Gecko) draw.io/21.6.5 Chrome/114.0.5735.243 Electron/25.3.1 Safari/537.36" etag="QCTcpOVJ3iebyODnLXMq" version="21.6.5" type="device">
  <diagram name="Page-1" id="nXqlTPuEWZttkAlKJWpj">
    <mxGraphModel dx="683" dy="414" grid="1" gridSize="10" guides="1" tooltips="1" connect="1" arrows="1" fold="1" page="1" pageScale="1" pageWidth="850" pageHeight="1100" math="1" shadow="0">
      <root>
        <mxCell id="0" />
        <mxCell id="1" parent="0" />
        <mxCell id="XnjCDIcHjmMH2OgmWB8k-35" value="" style="rounded=1;whiteSpace=wrap;html=1;strokeColor=#000099;arcSize=10;" parent="1" vertex="1">
          <mxGeometry x="80" y="60" width="600" height="450" as="geometry" />
        </mxCell>
        <mxCell id="XnjCDIcHjmMH2OgmWB8k-37" value="&lt;font color=&quot;#000099&quot;&gt;Masked Multi-Headed Self-Attention&lt;/font&gt;" style="rounded=1;whiteSpace=wrap;html=1;strokeColor=#000099;" parent="1" vertex="1">
          <mxGeometry x="250" y="70" width="240" height="30" as="geometry" />
        </mxCell>
        <mxCell id="0KHWkNFv0CEmFGJm_ItT-56" value="" style="group" parent="1" vertex="1" connectable="0">
          <mxGeometry x="110" y="250" width="133.1099999999999" height="257.00333333333333" as="geometry" />
        </mxCell>
        <mxCell id="0KHWkNFv0CEmFGJm_ItT-4" value="" style="endArrow=classic;html=1;rounded=0;entryX=0;entryY=0.5;entryDx=0;entryDy=0;dashed=1;" parent="0KHWkNFv0CEmFGJm_ItT-56" edge="1">
          <mxGeometry width="50" height="50" relative="1" as="geometry">
            <mxPoint x="74.77999999999997" y="213.00333333333333" as="sourcePoint" />
            <mxPoint x="74.77999999999997" y="170.00333333333333" as="targetPoint" />
          </mxGeometry>
        </mxCell>
        <mxCell id="0KHWkNFv0CEmFGJm_ItT-5" value="" style="endArrow=classic;html=1;rounded=0;entryX=0;entryY=0.5;entryDx=0;entryDy=0;dashed=1;" parent="0KHWkNFv0CEmFGJm_ItT-56" edge="1">
          <mxGeometry width="50" height="50" relative="1" as="geometry">
            <mxPoint x="67.77999999999997" y="220.00333333333333" as="sourcePoint" />
            <mxPoint x="67.77999999999997" y="177.00333333333333" as="targetPoint" />
          </mxGeometry>
        </mxCell>
        <mxCell id="0KHWkNFv0CEmFGJm_ItT-6" value="" style="rounded=1;whiteSpace=wrap;html=1;dashed=1;rotation=-90;" parent="0KHWkNFv0CEmFGJm_ItT-56" vertex="1">
          <mxGeometry x="17.329999999999927" y="68.56333333333328" width="116" height="115.56" as="geometry" />
        </mxCell>
        <mxCell id="0KHWkNFv0CEmFGJm_ItT-7" style="edgeStyle=orthogonalEdgeStyle;rounded=0;orthogonalLoop=1;jettySize=auto;html=1;exitX=1;exitY=0.5;exitDx=0;exitDy=0;endArrow=none;endFill=0;dashed=1;entryX=0.5;entryY=1;entryDx=0;entryDy=0;" parent="0KHWkNFv0CEmFGJm_ItT-56" target="0KHWkNFv0CEmFGJm_ItT-28" edge="1">
          <mxGeometry relative="1" as="geometry">
            <mxPoint x="71.77999999999997" y="69.00333333333333" as="targetPoint" />
            <mxPoint x="71.77999999999997" y="91.00333333333333" as="sourcePoint" />
          </mxGeometry>
        </mxCell>
        <mxCell id="0KHWkNFv0CEmFGJm_ItT-8" value="" style="rounded=1;whiteSpace=wrap;html=1;dashed=1;rotation=-90;" parent="0KHWkNFv0CEmFGJm_ItT-56" vertex="1">
          <mxGeometry x="10.329999999999927" y="76.55333333333328" width="114" height="115.56" as="geometry" />
        </mxCell>
        <mxCell id="0KHWkNFv0CEmFGJm_ItT-9" value="" style="rounded=1;whiteSpace=wrap;html=1;rotation=-90;" parent="0KHWkNFv0CEmFGJm_ItT-56" vertex="1">
          <mxGeometry x="4.829999999999927" y="85.05333333333328" width="111" height="115.56" as="geometry" />
        </mxCell>
        <mxCell id="0KHWkNFv0CEmFGJm_ItT-10" value="" style="rounded=1;whiteSpace=wrap;html=1;fillColor=#dae8fc;strokeColor=none;rotation=-90;" parent="0KHWkNFv0CEmFGJm_ItT-56" vertex="1">
          <mxGeometry x="17.779999999999973" y="168.00333333333333" width="14.444285714285716" height="28.88888888888889" as="geometry" />
        </mxCell>
        <mxCell id="0KHWkNFv0CEmFGJm_ItT-11" value="" style="rounded=1;whiteSpace=wrap;html=1;fillColor=#dae8fc;strokeColor=none;rotation=-90;" parent="0KHWkNFv0CEmFGJm_ItT-56" vertex="1">
          <mxGeometry x="53.77999999999997" y="168.00333333333333" width="14.444285714285716" height="28.88888888888889" as="geometry" />
        </mxCell>
        <mxCell id="0KHWkNFv0CEmFGJm_ItT-12" value="" style="rounded=1;whiteSpace=wrap;html=1;fillColor=#dae8fc;strokeColor=none;rotation=-90;" parent="0KHWkNFv0CEmFGJm_ItT-56" vertex="1">
          <mxGeometry x="89.77999999999997" y="168.00333333333333" width="14.444285714285716" height="28.88888888888889" as="geometry" />
        </mxCell>
        <mxCell id="0KHWkNFv0CEmFGJm_ItT-13" value="" style="endArrow=classicThin;html=1;rounded=0;entryX=0;entryY=0.5;entryDx=0;entryDy=0;endSize=1;endFill=1;" parent="0KHWkNFv0CEmFGJm_ItT-56" target="0KHWkNFv0CEmFGJm_ItT-11" edge="1">
          <mxGeometry width="50" height="50" relative="1" as="geometry">
            <mxPoint x="60.77999999999997" y="228.00333333333333" as="sourcePoint" />
            <mxPoint x="74.77999999999997" y="235.00333333333333" as="targetPoint" />
          </mxGeometry>
        </mxCell>
        <mxCell id="0KHWkNFv0CEmFGJm_ItT-14" value="" style="endArrow=classicThin;html=1;rounded=0;entryX=0;entryY=0.5;entryDx=0;entryDy=0;endFill=1;endSize=2;" parent="0KHWkNFv0CEmFGJm_ItT-56" target="0KHWkNFv0CEmFGJm_ItT-10" edge="1">
          <mxGeometry width="50" height="50" relative="1" as="geometry">
            <mxPoint x="60.77999999999997" y="206.00333333333333" as="sourcePoint" />
            <mxPoint x="16.779999999999973" y="206.00333333333333" as="targetPoint" />
            <Array as="points">
              <mxPoint x="24.779999999999973" y="206.00333333333333" />
            </Array>
          </mxGeometry>
        </mxCell>
        <mxCell id="0KHWkNFv0CEmFGJm_ItT-15" value="" style="endArrow=classicThin;html=1;rounded=0;entryX=0;entryY=0.5;entryDx=0;entryDy=0;endSize=1;endFill=1;" parent="0KHWkNFv0CEmFGJm_ItT-56" target="0KHWkNFv0CEmFGJm_ItT-12" edge="1">
          <mxGeometry width="50" height="50" relative="1" as="geometry">
            <mxPoint x="60.77999999999997" y="206.00333333333333" as="sourcePoint" />
            <mxPoint x="24.779999999999973" y="184.00333333333333" as="targetPoint" />
            <Array as="points">
              <mxPoint x="96.77999999999997" y="206.00333333333333" />
            </Array>
          </mxGeometry>
        </mxCell>
        <mxCell id="0KHWkNFv0CEmFGJm_ItT-16" value="" style="endArrow=none;html=1;rounded=0;" parent="0KHWkNFv0CEmFGJm_ItT-56" edge="1">
          <mxGeometry width="50" height="50" relative="1" as="geometry">
            <mxPoint x="67.77999999999997" y="220.00333333333333" as="sourcePoint" />
            <mxPoint x="60.77999999999997" y="228.00333333333333" as="targetPoint" />
          </mxGeometry>
        </mxCell>
        <mxCell id="0KHWkNFv0CEmFGJm_ItT-17" value="" style="endArrow=none;html=1;rounded=0;dashed=1;" parent="0KHWkNFv0CEmFGJm_ItT-56" edge="1">
          <mxGeometry width="50" height="50" relative="1" as="geometry">
            <mxPoint x="74.77999999999997" y="213.00333333333333" as="sourcePoint" />
            <mxPoint x="67.77999999999997" y="220.00333333333333" as="targetPoint" />
          </mxGeometry>
        </mxCell>
        <mxCell id="0KHWkNFv0CEmFGJm_ItT-23" value="" style="rounded=1;whiteSpace=wrap;html=1;fillColor=#dae8fc;strokeColor=none;rotation=-90;" parent="0KHWkNFv0CEmFGJm_ItT-56" vertex="1">
          <mxGeometry x="34.33999999999992" y="87.7833333333333" width="14.444285714285716" height="43.333333333333336" as="geometry" />
        </mxCell>
        <mxCell id="0KHWkNFv0CEmFGJm_ItT-24" value="" style="verticalLabelPosition=bottom;verticalAlign=top;html=1;shape=mxgraph.flowchart.summing_function;rotation=-45;" parent="0KHWkNFv0CEmFGJm_ItT-56" vertex="1">
          <mxGeometry x="57.389999999999986" y="91.7833333333333" width="7.222142857142858" height="7.222222222222222" as="geometry" />
        </mxCell>
        <mxCell id="0KHWkNFv0CEmFGJm_ItT-55" style="edgeStyle=orthogonalEdgeStyle;rounded=0;orthogonalLoop=1;jettySize=auto;html=1;exitX=1;exitY=0.5;exitDx=0;exitDy=0;entryX=0.855;entryY=0.855;entryDx=0;entryDy=0;entryPerimeter=0;endSize=1;endArrow=classicThin;endFill=1;" parent="0KHWkNFv0CEmFGJm_ItT-56" source="0KHWkNFv0CEmFGJm_ItT-12" target="0KHWkNFv0CEmFGJm_ItT-24" edge="1">
          <mxGeometry relative="1" as="geometry">
            <Array as="points">
              <mxPoint x="96.77999999999997" y="138.00333333333333" />
              <mxPoint x="96.77999999999997" y="95.00333333333333" />
            </Array>
          </mxGeometry>
        </mxCell>
        <mxCell id="0KHWkNFv0CEmFGJm_ItT-41" style="edgeStyle=orthogonalEdgeStyle;rounded=0;orthogonalLoop=1;jettySize=auto;html=1;exitX=1;exitY=0.5;exitDx=0;exitDy=0;entryX=0.145;entryY=0.145;entryDx=0;entryDy=0;entryPerimeter=0;endArrow=classicThin;endFill=1;endSize=1;" parent="0KHWkNFv0CEmFGJm_ItT-56" source="0KHWkNFv0CEmFGJm_ItT-23" target="0KHWkNFv0CEmFGJm_ItT-24" edge="1">
          <mxGeometry relative="1" as="geometry">
            <Array as="points">
              <mxPoint x="41.77999999999997" y="95.00333333333333" />
            </Array>
          </mxGeometry>
        </mxCell>
        <mxCell id="0KHWkNFv0CEmFGJm_ItT-26" value="" style="endArrow=none;html=1;rounded=0;exitX=0.997;exitY=0.572;exitDx=0;exitDy=0;dashed=1;entryX=0.75;entryY=1;entryDx=0;entryDy=0;exitPerimeter=0;" parent="0KHWkNFv0CEmFGJm_ItT-56" source="0KHWkNFv0CEmFGJm_ItT-6" target="0KHWkNFv0CEmFGJm_ItT-28" edge="1">
          <mxGeometry width="50" height="50" relative="1" as="geometry">
            <mxPoint x="81.77999999999997" y="83.00333333333333" as="sourcePoint" />
            <mxPoint x="81.77999999999997" y="62.00333333333333" as="targetPoint" />
            <Array as="points" />
          </mxGeometry>
        </mxCell>
        <mxCell id="0KHWkNFv0CEmFGJm_ItT-28" value="&lt;font style=&quot;font-size: 10px;&quot;&gt;Concat&lt;/font&gt;" style="rounded=1;whiteSpace=wrap;html=1;fillColor=#dae8fc;strokeColor=none;rotation=0;" parent="0KHWkNFv0CEmFGJm_ItT-56" vertex="1">
          <mxGeometry x="49.77999999999997" y="40.00333333333333" width="45" height="15.61" as="geometry" />
        </mxCell>
        <mxCell id="0KHWkNFv0CEmFGJm_ItT-29" style="edgeStyle=orthogonalEdgeStyle;rounded=0;orthogonalLoop=1;jettySize=auto;html=1;exitX=0.855;exitY=0.145;exitDx=0;exitDy=0;endArrow=none;endFill=0;entryX=0.25;entryY=1;entryDx=0;entryDy=0;exitPerimeter=0;" parent="0KHWkNFv0CEmFGJm_ItT-56" source="0KHWkNFv0CEmFGJm_ItT-24" target="0KHWkNFv0CEmFGJm_ItT-28" edge="1">
          <mxGeometry relative="1" as="geometry">
            <mxPoint x="60.77999999999997" y="72.00333333333333" as="targetPoint" />
          </mxGeometry>
        </mxCell>
        <mxCell id="0KHWkNFv0CEmFGJm_ItT-34" value="" style="rounded=1;whiteSpace=wrap;html=1;fillColor=#dae8fc;strokeColor=none;rotation=-90;" parent="0KHWkNFv0CEmFGJm_ItT-56" vertex="1">
          <mxGeometry x="30.779999999999973" y="127.00333333333333" width="21.11" height="60" as="geometry" />
        </mxCell>
        <mxCell id="0KHWkNFv0CEmFGJm_ItT-52" style="edgeStyle=orthogonalEdgeStyle;rounded=0;orthogonalLoop=1;jettySize=auto;html=1;exitX=1;exitY=0.5;exitDx=0;exitDy=0;entryX=0;entryY=0.229;entryDx=0;entryDy=0;entryPerimeter=0;endSize=1;endArrow=classicThin;endFill=1;" parent="0KHWkNFv0CEmFGJm_ItT-56" source="0KHWkNFv0CEmFGJm_ItT-10" target="0KHWkNFv0CEmFGJm_ItT-34" edge="1">
          <mxGeometry relative="1" as="geometry" />
        </mxCell>
        <mxCell id="0KHWkNFv0CEmFGJm_ItT-54" style="edgeStyle=orthogonalEdgeStyle;rounded=0;orthogonalLoop=1;jettySize=auto;html=1;exitX=1;exitY=0.5;exitDx=0;exitDy=0;entryX=-0.003;entryY=0.829;entryDx=0;entryDy=0;entryPerimeter=0;endSize=1;endArrow=classicThin;endFill=1;" parent="0KHWkNFv0CEmFGJm_ItT-56" source="0KHWkNFv0CEmFGJm_ItT-11" target="0KHWkNFv0CEmFGJm_ItT-34" edge="1">
          <mxGeometry relative="1" as="geometry" />
        </mxCell>
        <mxCell id="0KHWkNFv0CEmFGJm_ItT-36" value="" style="endArrow=none;html=1;rounded=0;" parent="0KHWkNFv0CEmFGJm_ItT-56" edge="1">
          <mxGeometry width="50" height="50" relative="1" as="geometry">
            <mxPoint x="67.77999999999997" y="230.00333333333333" as="sourcePoint" />
            <mxPoint x="67.77999999999997" y="220.00333333333333" as="targetPoint" />
          </mxGeometry>
        </mxCell>
        <mxCell id="0KHWkNFv0CEmFGJm_ItT-37" value="$$X$$" style="text;html=1;align=center;verticalAlign=middle;resizable=0;points=[];autosize=1;strokeColor=none;fillColor=none;rotation=0;" parent="0KHWkNFv0CEmFGJm_ItT-56" vertex="1">
          <mxGeometry x="37.77999999999997" y="227.00333333333333" width="60" height="30" as="geometry" />
        </mxCell>
        <mxCell id="0KHWkNFv0CEmFGJm_ItT-39" style="edgeStyle=orthogonalEdgeStyle;rounded=0;orthogonalLoop=1;jettySize=auto;html=1;exitX=0.5;exitY=0;exitDx=0;exitDy=0;endSize=1;endArrow=classicThin;endFill=1;" parent="0KHWkNFv0CEmFGJm_ItT-56" source="0KHWkNFv0CEmFGJm_ItT-31" edge="1">
          <mxGeometry relative="1" as="geometry">
            <mxPoint x="72.32237288135582" as="targetPoint" />
          </mxGeometry>
        </mxCell>
        <mxCell id="0KHWkNFv0CEmFGJm_ItT-31" value="&lt;font style=&quot;font-size: 10px;&quot;&gt;Linear&lt;/font&gt;" style="rounded=1;whiteSpace=wrap;html=1;fillColor=#dae8fc;strokeColor=none;rotation=0;" parent="0KHWkNFv0CEmFGJm_ItT-56" vertex="1">
          <mxGeometry x="49.77999999999997" y="14.00333333333333" width="45" height="15.61" as="geometry" />
        </mxCell>
        <mxCell id="0KHWkNFv0CEmFGJm_ItT-32" style="edgeStyle=orthogonalEdgeStyle;rounded=0;orthogonalLoop=1;jettySize=auto;html=1;exitX=0.5;exitY=0;exitDx=0;exitDy=0;entryX=0.5;entryY=1;entryDx=0;entryDy=0;endSize=1;endArrow=classicThin;endFill=1;" parent="0KHWkNFv0CEmFGJm_ItT-56" source="0KHWkNFv0CEmFGJm_ItT-28" target="0KHWkNFv0CEmFGJm_ItT-31" edge="1">
          <mxGeometry relative="1" as="geometry">
            <mxPoint x="126.72000000000003" y="25.613333333333344" as="sourcePoint" />
          </mxGeometry>
        </mxCell>
        <mxCell id="0KHWkNFv0CEmFGJm_ItT-46" style="edgeStyle=orthogonalEdgeStyle;rounded=0;orthogonalLoop=1;jettySize=auto;html=1;exitX=1;exitY=0.5;exitDx=0;exitDy=0;entryX=0;entryY=0.5;entryDx=0;entryDy=0;endSize=1;endArrow=classicThin;endFill=1;" parent="0KHWkNFv0CEmFGJm_ItT-56" source="0KHWkNFv0CEmFGJm_ItT-43" target="0KHWkNFv0CEmFGJm_ItT-23" edge="1">
          <mxGeometry relative="1" as="geometry" />
        </mxCell>
        <mxCell id="0KHWkNFv0CEmFGJm_ItT-43" value="" style="rounded=1;whiteSpace=wrap;html=1;fillColor=#dae8fc;strokeColor=none;rotation=-90;" parent="0KHWkNFv0CEmFGJm_ItT-56" vertex="1">
          <mxGeometry x="34.33999999999992" y="109.67333333333329" width="14.444285714285716" height="43.333333333333336" as="geometry" />
        </mxCell>
        <mxCell id="0KHWkNFv0CEmFGJm_ItT-19" value="&lt;font style=&quot;font-size: 10px;&quot;&gt;Query&lt;/font&gt;" style="text;html=1;align=center;verticalAlign=middle;resizable=0;points=[];autosize=1;strokeColor=none;fillColor=none;rotation=0;" parent="0KHWkNFv0CEmFGJm_ItT-56" vertex="1">
          <mxGeometry y="166.89333333333332" width="50" height="30" as="geometry" />
        </mxCell>
        <mxCell id="0KHWkNFv0CEmFGJm_ItT-35" value="&lt;p style=&quot;line-height: 70%;&quot;&gt;&lt;font style=&quot;font-size: 10px;&quot;&gt;Scale &lt;br&gt;Dot-Product&lt;br&gt;&lt;/font&gt;&lt;/p&gt;" style="text;html=1;align=center;verticalAlign=middle;resizable=0;points=[];autosize=1;strokeColor=none;fillColor=none;rotation=0;" parent="0KHWkNFv0CEmFGJm_ItT-56" vertex="1">
          <mxGeometry x="0.5599999999999454" y="126.12333333333333" width="80" height="60" as="geometry" />
        </mxCell>
        <mxCell id="0KHWkNFv0CEmFGJm_ItT-18" value="&lt;font style=&quot;font-size: 10px;&quot;&gt;Key&lt;/font&gt;" style="text;html=1;align=center;verticalAlign=middle;resizable=0;points=[];autosize=1;strokeColor=none;fillColor=none;rotation=0;" parent="0KHWkNFv0CEmFGJm_ItT-56" vertex="1">
          <mxGeometry x="39.77999999999997" y="165.89333333333332" width="40" height="30" as="geometry" />
        </mxCell>
        <mxCell id="0KHWkNFv0CEmFGJm_ItT-20" value="&lt;font style=&quot;font-size: 10px;&quot;&gt;Value&lt;/font&gt;" style="text;html=1;align=center;verticalAlign=middle;resizable=0;points=[];autosize=1;strokeColor=none;fillColor=none;rotation=0;" parent="0KHWkNFv0CEmFGJm_ItT-56" vertex="1">
          <mxGeometry x="72.22000000000003" y="166.89333333333332" width="50" height="30" as="geometry" />
        </mxCell>
        <mxCell id="0KHWkNFv0CEmFGJm_ItT-44" value="&lt;font style=&quot;font-size: 10px;&quot;&gt;Mask&lt;/font&gt;" style="text;html=1;align=center;verticalAlign=middle;resizable=0;points=[];autosize=1;strokeColor=none;fillColor=none;rotation=0;" parent="0KHWkNFv0CEmFGJm_ItT-56" vertex="1">
          <mxGeometry x="14.610000000000014" y="116.34333333333336" width="50" height="30" as="geometry" />
        </mxCell>
        <mxCell id="0KHWkNFv0CEmFGJm_ItT-38" value="&lt;font style=&quot;font-size: 10px;&quot;&gt;Softmax&lt;/font&gt;" style="text;html=1;align=center;verticalAlign=middle;resizable=0;points=[];autosize=1;strokeColor=none;fillColor=none;rotation=0;" parent="0KHWkNFv0CEmFGJm_ItT-56" vertex="1">
          <mxGeometry x="10.559999999999945" y="94.45333333333338" width="60" height="30" as="geometry" />
        </mxCell>
        <mxCell id="0KHWkNFv0CEmFGJm_ItT-47" style="edgeStyle=orthogonalEdgeStyle;rounded=0;orthogonalLoop=1;jettySize=auto;html=1;exitX=1;exitY=0.5;exitDx=0;exitDy=0;entryX=0;entryY=0.5;entryDx=0;entryDy=0;endSize=1;endArrow=classicThin;endFill=1;" parent="0KHWkNFv0CEmFGJm_ItT-56" source="0KHWkNFv0CEmFGJm_ItT-34" target="0KHWkNFv0CEmFGJm_ItT-43" edge="1">
          <mxGeometry relative="1" as="geometry" />
        </mxCell>
        <mxCell id="0KHWkNFv0CEmFGJm_ItT-104" value="" style="shape=cross;whiteSpace=wrap;html=1;fillColor=#000099;strokeColor=none;rotation=45;" parent="1" vertex="1">
          <mxGeometry x="334.25" y="350" width="20" height="20" as="geometry" />
        </mxCell>
        <mxCell id="0KHWkNFv0CEmFGJm_ItT-135" value="" style="group" parent="1" vertex="1" connectable="0">
          <mxGeometry x="260" y="250" width="182" height="92" as="geometry" />
        </mxCell>
        <mxCell id="0KHWkNFv0CEmFGJm_ItT-105" value="" style="rounded=1;whiteSpace=wrap;html=1;dashed=1;strokeColor=#000099;" parent="0KHWkNFv0CEmFGJm_ItT-135" vertex="1">
          <mxGeometry x="11.5" y="2" width="150" height="30" as="geometry" />
        </mxCell>
        <mxCell id="0KHWkNFv0CEmFGJm_ItT-58" value="" style="rounded=0;whiteSpace=wrap;html=1;fontColor=#000099;strokeColor=#000099;" parent="0KHWkNFv0CEmFGJm_ItT-135" vertex="1">
          <mxGeometry x="21.5" y="7" width="40" height="20" as="geometry" />
        </mxCell>
        <mxCell id="0KHWkNFv0CEmFGJm_ItT-60" value="" style="rounded=0;whiteSpace=wrap;html=1;fontColor=#000099;strokeColor=#000099;" parent="0KHWkNFv0CEmFGJm_ItT-135" vertex="1">
          <mxGeometry x="111.5" y="7" width="40" height="20" as="geometry" />
        </mxCell>
        <mxCell id="0KHWkNFv0CEmFGJm_ItT-61" value="" style="rounded=0;whiteSpace=wrap;html=1;fontColor=#000099;strokeColor=#000099;" parent="0KHWkNFv0CEmFGJm_ItT-135" vertex="1">
          <mxGeometry x="21.5" y="67" width="40" height="20" as="geometry" />
        </mxCell>
        <mxCell id="0KHWkNFv0CEmFGJm_ItT-62" value="" style="rounded=0;whiteSpace=wrap;html=1;fontColor=#000099;strokeColor=#000099;" parent="0KHWkNFv0CEmFGJm_ItT-135" vertex="1">
          <mxGeometry x="111.5" y="67" width="39" height="20" as="geometry" />
        </mxCell>
        <mxCell id="0KHWkNFv0CEmFGJm_ItT-64" value="&lt;font style=&quot;font-size: 10px;&quot;&gt;$$q^{0}_0$$&lt;/font&gt;" style="text;html=1;align=center;verticalAlign=middle;resizable=0;points=[];autosize=1;strokeColor=none;fillColor=none;fontColor=#000099;" parent="0KHWkNFv0CEmFGJm_ItT-135" vertex="1">
          <mxGeometry width="80" height="30" as="geometry" />
        </mxCell>
        <mxCell id="0KHWkNFv0CEmFGJm_ItT-65" value="&lt;font style=&quot;font-size: 10px;&quot;&gt;$$q^0_{d_k-1}$$&lt;/font&gt;" style="text;html=1;align=center;verticalAlign=middle;resizable=0;points=[];autosize=1;strokeColor=none;fillColor=none;fontColor=#000099;" parent="0KHWkNFv0CEmFGJm_ItT-135" vertex="1">
          <mxGeometry x="82" y="2" width="100" height="30" as="geometry" />
        </mxCell>
        <mxCell id="0KHWkNFv0CEmFGJm_ItT-66" value="&lt;span style=&quot;font-family: Helvetica; font-style: normal; font-variant-ligatures: normal; font-variant-caps: normal; font-weight: 400; letter-spacing: normal; orphans: 2; text-align: center; text-indent: 0px; text-transform: none; widows: 2; word-spacing: 0px; -webkit-text-stroke-width: 0px; background-color: rgb(251, 251, 251); text-decoration-thickness: initial; text-decoration-style: initial; text-decoration-color: initial; float: none; display: inline !important;&quot;&gt;&lt;font style=&quot;font-size: 10px;&quot;&gt;$$q^{L-1}_0$$&lt;/font&gt;&lt;/span&gt;" style="text;whiteSpace=wrap;html=1;fontColor=#000099;" parent="0KHWkNFv0CEmFGJm_ItT-135" vertex="1">
          <mxGeometry x="26" y="61.5" width="30" height="15" as="geometry" />
        </mxCell>
        <mxCell id="0KHWkNFv0CEmFGJm_ItT-67" value="&lt;span style=&quot;font-family: Helvetica; font-style: normal; font-variant-ligatures: normal; font-variant-caps: normal; font-weight: 400; letter-spacing: normal; orphans: 2; text-align: center; text-indent: 0px; text-transform: none; widows: 2; word-spacing: 0px; -webkit-text-stroke-width: 0px; background-color: rgb(251, 251, 251); text-decoration-thickness: initial; text-decoration-style: initial; text-decoration-color: initial; float: none; display: inline !important;&quot;&gt;&lt;font style=&quot;font-size: 10px;&quot;&gt;$$q^{L-1}_{d_k - 1}$$&lt;/font&gt;&lt;/span&gt;" style="text;whiteSpace=wrap;html=1;fontColor=#000099;" parent="0KHWkNFv0CEmFGJm_ItT-135" vertex="1">
          <mxGeometry x="115" y="61" width="30" height="12" as="geometry" />
        </mxCell>
        <mxCell id="0KHWkNFv0CEmFGJm_ItT-69" value="" style="endArrow=none;dashed=1;html=1;rounded=0;dashPattern=1 2;strokeWidth=1;strokeColor=#000099;" parent="0KHWkNFv0CEmFGJm_ItT-135" edge="1">
          <mxGeometry width="50" height="50" relative="1" as="geometry">
            <mxPoint x="71.5" y="16.789999999999964" as="sourcePoint" />
            <mxPoint x="101.5" y="16.789999999999964" as="targetPoint" />
          </mxGeometry>
        </mxCell>
        <mxCell id="0KHWkNFv0CEmFGJm_ItT-70" value="" style="endArrow=none;dashed=1;html=1;rounded=0;dashPattern=1 2;strokeWidth=1;strokeColor=#000099;" parent="0KHWkNFv0CEmFGJm_ItT-135" edge="1">
          <mxGeometry width="50" height="50" relative="1" as="geometry">
            <mxPoint x="71.5" y="77" as="sourcePoint" />
            <mxPoint x="101.5" y="76.88" as="targetPoint" />
          </mxGeometry>
        </mxCell>
        <mxCell id="0KHWkNFv0CEmFGJm_ItT-71" value="" style="endArrow=none;dashed=1;html=1;rounded=0;dashPattern=1 2;strokeWidth=1;strokeColor=#000099;" parent="0KHWkNFv0CEmFGJm_ItT-135" edge="1">
          <mxGeometry width="50" height="50" relative="1" as="geometry">
            <mxPoint x="41.379999999999995" y="58" as="sourcePoint" />
            <mxPoint x="41.379999999999995" y="33" as="targetPoint" />
          </mxGeometry>
        </mxCell>
        <mxCell id="0KHWkNFv0CEmFGJm_ItT-72" value="" style="endArrow=none;dashed=1;html=1;rounded=0;dashPattern=1 2;strokeWidth=1;strokeColor=#000099;" parent="0KHWkNFv0CEmFGJm_ItT-135" edge="1">
          <mxGeometry width="50" height="50" relative="1" as="geometry">
            <mxPoint x="131.92999999999995" y="61" as="sourcePoint" />
            <mxPoint x="131.92999999999995" y="36" as="targetPoint" />
          </mxGeometry>
        </mxCell>
        <mxCell id="0KHWkNFv0CEmFGJm_ItT-159" value="" style="group" parent="1" vertex="1" connectable="0">
          <mxGeometry x="250" y="380" width="174.5" height="108" as="geometry" />
        </mxCell>
        <mxCell id="0KHWkNFv0CEmFGJm_ItT-137" value="" style="rounded=1;whiteSpace=wrap;html=1;dashed=1;strokeColor=#000099;rotation=90;" parent="0KHWkNFv0CEmFGJm_ItT-159" vertex="1">
          <mxGeometry x="-2.5" y="25.5" width="103" height="62" as="geometry" />
        </mxCell>
        <mxCell id="0KHWkNFv0CEmFGJm_ItT-138" value="" style="rounded=0;whiteSpace=wrap;html=1;fontColor=#000099;strokeColor=#000099;" parent="0KHWkNFv0CEmFGJm_ItT-159" vertex="1">
          <mxGeometry x="29.5" y="17" width="40" height="20" as="geometry" />
        </mxCell>
        <mxCell id="0KHWkNFv0CEmFGJm_ItT-139" value="" style="rounded=0;whiteSpace=wrap;html=1;fontColor=#000099;strokeColor=#000099;" parent="0KHWkNFv0CEmFGJm_ItT-159" vertex="1">
          <mxGeometry x="119.5" y="17" width="40" height="20" as="geometry" />
        </mxCell>
        <mxCell id="0KHWkNFv0CEmFGJm_ItT-140" value="" style="rounded=0;whiteSpace=wrap;html=1;fontColor=#000099;strokeColor=#000099;" parent="0KHWkNFv0CEmFGJm_ItT-159" vertex="1">
          <mxGeometry x="29.5" y="77" width="40" height="20" as="geometry" />
        </mxCell>
        <mxCell id="0KHWkNFv0CEmFGJm_ItT-141" value="" style="rounded=0;whiteSpace=wrap;html=1;fontColor=#000099;strokeColor=#000099;" parent="0KHWkNFv0CEmFGJm_ItT-159" vertex="1">
          <mxGeometry x="119.5" y="77" width="39" height="20" as="geometry" />
        </mxCell>
        <mxCell id="0KHWkNFv0CEmFGJm_ItT-142" value="&lt;font style=&quot;font-size: 10px;&quot;&gt;$$k^{0}_0$$&lt;/font&gt;" style="text;html=1;align=center;verticalAlign=middle;resizable=0;points=[];autosize=1;strokeColor=none;fillColor=none;fontColor=#000099;container=0;" parent="0KHWkNFv0CEmFGJm_ItT-159" vertex="1">
          <mxGeometry x="8" y="11" width="80" height="30" as="geometry" />
        </mxCell>
        <mxCell id="0KHWkNFv0CEmFGJm_ItT-143" value="&lt;font style=&quot;font-size: 10px;&quot;&gt;$$k^0_{d_k-1}$$&lt;/font&gt;" style="text;html=1;align=center;verticalAlign=middle;resizable=0;points=[];autosize=1;strokeColor=none;fillColor=none;fontColor=#000099;" parent="0KHWkNFv0CEmFGJm_ItT-159" vertex="1">
          <mxGeometry y="72" width="100" height="30" as="geometry" />
        </mxCell>
        <mxCell id="0KHWkNFv0CEmFGJm_ItT-144" value="&lt;span style=&quot;font-family: Helvetica; font-style: normal; font-variant-ligatures: normal; font-variant-caps: normal; font-weight: 400; letter-spacing: normal; orphans: 2; text-align: center; text-indent: 0px; text-transform: none; widows: 2; word-spacing: 0px; -webkit-text-stroke-width: 0px; background-color: rgb(251, 251, 251); text-decoration-thickness: initial; text-decoration-style: initial; text-decoration-color: initial; float: none; display: inline !important;&quot;&gt;&lt;font style=&quot;font-size: 10px;&quot;&gt;$$k^{L-1}_0$$&lt;/font&gt;&lt;/span&gt;" style="text;whiteSpace=wrap;html=1;fontColor=#000099;" parent="0KHWkNFv0CEmFGJm_ItT-159" vertex="1">
          <mxGeometry x="121.25" y="11.5" width="35.5" height="15" as="geometry" />
        </mxCell>
        <mxCell id="0KHWkNFv0CEmFGJm_ItT-145" value="&lt;span style=&quot;font-family: Helvetica; font-style: normal; font-variant-ligatures: normal; font-variant-caps: normal; font-weight: 400; letter-spacing: normal; orphans: 2; text-align: center; text-indent: 0px; text-transform: none; widows: 2; word-spacing: 0px; -webkit-text-stroke-width: 0px; background-color: rgb(251, 251, 251); text-decoration-thickness: initial; text-decoration-style: initial; text-decoration-color: initial; float: none; display: inline !important;&quot;&gt;&lt;font style=&quot;font-size: 10px;&quot;&gt;$$k^{L-1}_{d_k - 1}$$&lt;/font&gt;&lt;/span&gt;" style="text;whiteSpace=wrap;html=1;fontColor=#000099;" parent="0KHWkNFv0CEmFGJm_ItT-159" vertex="1">
          <mxGeometry x="124" y="73" width="30" height="18" as="geometry" />
        </mxCell>
        <mxCell id="0KHWkNFv0CEmFGJm_ItT-146" value="" style="endArrow=none;dashed=1;html=1;rounded=0;dashPattern=1 2;strokeWidth=1;strokeColor=#000099;" parent="0KHWkNFv0CEmFGJm_ItT-159" edge="1">
          <mxGeometry width="50" height="50" relative="1" as="geometry">
            <mxPoint x="79.5" y="26.789999999999964" as="sourcePoint" />
            <mxPoint x="109.5" y="26.789999999999964" as="targetPoint" />
          </mxGeometry>
        </mxCell>
        <mxCell id="0KHWkNFv0CEmFGJm_ItT-147" value="" style="endArrow=none;dashed=1;html=1;rounded=0;dashPattern=1 2;strokeWidth=1;strokeColor=#000099;" parent="0KHWkNFv0CEmFGJm_ItT-159" edge="1">
          <mxGeometry width="50" height="50" relative="1" as="geometry">
            <mxPoint x="79.5" y="87" as="sourcePoint" />
            <mxPoint x="109.5" y="86.88" as="targetPoint" />
          </mxGeometry>
        </mxCell>
        <mxCell id="0KHWkNFv0CEmFGJm_ItT-148" value="" style="endArrow=none;dashed=1;html=1;rounded=0;dashPattern=1 2;strokeWidth=1;strokeColor=#000099;" parent="0KHWkNFv0CEmFGJm_ItT-159" edge="1">
          <mxGeometry width="50" height="50" relative="1" as="geometry">
            <mxPoint x="49.379999999999995" y="68" as="sourcePoint" />
            <mxPoint x="49.379999999999995" y="43" as="targetPoint" />
          </mxGeometry>
        </mxCell>
        <mxCell id="0KHWkNFv0CEmFGJm_ItT-149" value="" style="endArrow=none;dashed=1;html=1;rounded=0;dashPattern=1 2;strokeWidth=1;strokeColor=#000099;" parent="0KHWkNFv0CEmFGJm_ItT-159" edge="1">
          <mxGeometry width="50" height="50" relative="1" as="geometry">
            <mxPoint x="139.92999999999995" y="71" as="sourcePoint" />
            <mxPoint x="139.92999999999995" y="46" as="targetPoint" />
          </mxGeometry>
        </mxCell>
        <mxCell id="0KHWkNFv0CEmFGJm_ItT-161" value="" style="group" parent="1" vertex="1" connectable="0">
          <mxGeometry x="450" y="240" width="209.5" height="102" as="geometry" />
        </mxCell>
        <mxCell id="0KHWkNFv0CEmFGJm_ItT-156" value="" style="group" parent="0KHWkNFv0CEmFGJm_ItT-161" vertex="1" connectable="0">
          <mxGeometry y="1" width="189" height="101" as="geometry" />
        </mxCell>
        <mxCell id="0KHWkNFv0CEmFGJm_ItT-108" value="" style="rounded=0;whiteSpace=wrap;html=1;fontColor=#000099;strokeColor=#000099;" parent="0KHWkNFv0CEmFGJm_ItT-156" vertex="1">
          <mxGeometry x="20" y="11" width="70" height="20" as="geometry" />
        </mxCell>
        <mxCell id="0KHWkNFv0CEmFGJm_ItT-109" value="" style="rounded=0;whiteSpace=wrap;html=1;fontColor=#000099;strokeColor=#000099;" parent="0KHWkNFv0CEmFGJm_ItT-156" vertex="1">
          <mxGeometry x="120" y="11" width="69" height="20" as="geometry" />
        </mxCell>
        <mxCell id="0KHWkNFv0CEmFGJm_ItT-110" value="" style="rounded=0;whiteSpace=wrap;html=1;fontColor=#000099;strokeColor=#000099;" parent="0KHWkNFv0CEmFGJm_ItT-156" vertex="1">
          <mxGeometry x="20" y="71" width="70" height="20" as="geometry" />
        </mxCell>
        <mxCell id="0KHWkNFv0CEmFGJm_ItT-111" value="" style="rounded=0;whiteSpace=wrap;html=1;fontColor=#000099;strokeColor=#000099;" parent="0KHWkNFv0CEmFGJm_ItT-156" vertex="1">
          <mxGeometry x="120" y="71" width="69" height="20" as="geometry" />
        </mxCell>
        <mxCell id="0KHWkNFv0CEmFGJm_ItT-116" value="" style="endArrow=none;dashed=1;html=1;rounded=0;dashPattern=1 2;strokeWidth=1;strokeColor=#000099;" parent="0KHWkNFv0CEmFGJm_ItT-156" edge="1">
          <mxGeometry width="50" height="50" relative="1" as="geometry">
            <mxPoint x="96" y="20.879999999999995" as="sourcePoint" />
            <mxPoint x="116" y="20.879999999999995" as="targetPoint" />
          </mxGeometry>
        </mxCell>
        <mxCell id="0KHWkNFv0CEmFGJm_ItT-117" value="" style="endArrow=none;dashed=1;html=1;rounded=0;dashPattern=1 2;strokeWidth=1;strokeColor=#000099;" parent="0KHWkNFv0CEmFGJm_ItT-156" edge="1">
          <mxGeometry width="50" height="50" relative="1" as="geometry">
            <mxPoint x="95" y="80.88" as="sourcePoint" />
            <mxPoint x="115" y="80.88" as="targetPoint" />
          </mxGeometry>
        </mxCell>
        <mxCell id="0KHWkNFv0CEmFGJm_ItT-118" value="" style="endArrow=none;dashed=1;html=1;rounded=0;dashPattern=1 2;strokeWidth=1;strokeColor=#000099;" parent="0KHWkNFv0CEmFGJm_ItT-156" edge="1">
          <mxGeometry width="50" height="50" relative="1" as="geometry">
            <mxPoint x="56.88000000000011" y="62" as="sourcePoint" />
            <mxPoint x="56.88000000000011" y="37" as="targetPoint" />
          </mxGeometry>
        </mxCell>
        <mxCell id="0KHWkNFv0CEmFGJm_ItT-119" value="" style="endArrow=none;dashed=1;html=1;rounded=0;dashPattern=1 2;strokeWidth=1;strokeColor=#000099;" parent="0KHWkNFv0CEmFGJm_ItT-156" edge="1">
          <mxGeometry width="50" height="50" relative="1" as="geometry">
            <mxPoint x="154.8800000000001" y="63" as="sourcePoint" />
            <mxPoint x="154.8800000000001" y="38" as="targetPoint" />
          </mxGeometry>
        </mxCell>
        <mxCell id="0KHWkNFv0CEmFGJm_ItT-153" value="&lt;font style=&quot;font-size: 10px;&quot;&gt;$$(q^{L-1})^Tk^{0}&lt;br&gt;$$&lt;/font&gt;" style="text;html=1;align=center;verticalAlign=middle;resizable=0;points=[];autosize=1;strokeColor=none;fillColor=none;fontColor=#000099;" parent="0KHWkNFv0CEmFGJm_ItT-156" vertex="1">
          <mxGeometry x="3" y="61" width="110" height="40" as="geometry" />
        </mxCell>
        <mxCell id="0KHWkNFv0CEmFGJm_ItT-154" value="&lt;font style=&quot;font-size: 10px;&quot;&gt;$$(q^{0})^Tk^{0}&lt;br&gt;$$&lt;/font&gt;" style="text;html=1;align=center;verticalAlign=middle;resizable=0;points=[];autosize=1;strokeColor=none;fillColor=none;fontColor=#000099;" parent="0KHWkNFv0CEmFGJm_ItT-156" vertex="1">
          <mxGeometry x="8" width="100" height="40" as="geometry" />
        </mxCell>
        <mxCell id="0KHWkNFv0CEmFGJm_ItT-201" value="" style="shape=flexArrow;endArrow=classic;html=1;rounded=0;width=4.918032786885246;endSize=5.918032786885247;endWidth=7.718355280838484;strokeColor=none;fillColor=#000099;" parent="0KHWkNFv0CEmFGJm_ItT-156" edge="1">
          <mxGeometry width="50" height="50" relative="1" as="geometry">
            <mxPoint x="-25" y="50.30000000000001" as="sourcePoint" />
            <mxPoint x="15" y="50.30000000000001" as="targetPoint" />
          </mxGeometry>
        </mxCell>
        <mxCell id="0KHWkNFv0CEmFGJm_ItT-150" value="&lt;font style=&quot;font-size: 10px;&quot;&gt;$$(q^{L-1})^Tk^{L-1}&lt;br&gt;$$&lt;/font&gt;" style="text;html=1;align=center;verticalAlign=middle;resizable=0;points=[];autosize=1;strokeColor=none;fillColor=none;fontColor=#000099;" parent="0KHWkNFv0CEmFGJm_ItT-161" vertex="1">
          <mxGeometry x="99.5" y="61" width="110" height="40" as="geometry" />
        </mxCell>
        <mxCell id="0KHWkNFv0CEmFGJm_ItT-152" value="&lt;font style=&quot;font-size: 10px;&quot;&gt;$$(q^{0})^Tk^{L-1}&lt;br&gt;$$&lt;/font&gt;" style="text;html=1;align=center;verticalAlign=middle;resizable=0;points=[];autosize=1;strokeColor=none;fillColor=none;fontColor=#000099;" parent="0KHWkNFv0CEmFGJm_ItT-161" vertex="1">
          <mxGeometry x="99.5" width="110" height="40" as="geometry" />
        </mxCell>
        <mxCell id="0KHWkNFv0CEmFGJm_ItT-199" value="" style="group" parent="1" vertex="1" connectable="0">
          <mxGeometry x="450" y="360" width="209.5" height="137" as="geometry" />
        </mxCell>
        <mxCell id="0KHWkNFv0CEmFGJm_ItT-179" value="" style="endArrow=none;html=1;rounded=0;strokeColor=#000099;" parent="0KHWkNFv0CEmFGJm_ItT-199" edge="1">
          <mxGeometry width="50" height="50" relative="1" as="geometry">
            <mxPoint x="70" y="25" as="sourcePoint" />
            <mxPoint x="200.23529411764707" y="25" as="targetPoint" />
          </mxGeometry>
        </mxCell>
        <mxCell id="0KHWkNFv0CEmFGJm_ItT-195" value="" style="endArrow=none;html=1;rounded=0;strokeColor=#000099;" parent="0KHWkNFv0CEmFGJm_ItT-199" edge="1">
          <mxGeometry width="50" height="50" relative="1" as="geometry">
            <mxPoint x="70" y="25" as="sourcePoint" />
            <mxPoint x="200" y="115" as="targetPoint" />
          </mxGeometry>
        </mxCell>
        <mxCell id="0KHWkNFv0CEmFGJm_ItT-163" value="" style="group" parent="0KHWkNFv0CEmFGJm_ItT-199" vertex="1" connectable="0">
          <mxGeometry y="36" width="209.5" height="101" as="geometry" />
        </mxCell>
        <mxCell id="0KHWkNFv0CEmFGJm_ItT-164" value="" style="rounded=0;whiteSpace=wrap;html=1;fontColor=#000099;strokeColor=#000099;" parent="0KHWkNFv0CEmFGJm_ItT-163" vertex="1">
          <mxGeometry x="20" y="11" width="70" height="20" as="geometry" />
        </mxCell>
        <mxCell id="0KHWkNFv0CEmFGJm_ItT-165" value="" style="rounded=0;whiteSpace=wrap;html=1;fontColor=#000099;strokeColor=#000099;" parent="0KHWkNFv0CEmFGJm_ItT-163" vertex="1">
          <mxGeometry x="120" y="11" width="69" height="20" as="geometry" />
        </mxCell>
        <mxCell id="0KHWkNFv0CEmFGJm_ItT-166" value="" style="rounded=0;whiteSpace=wrap;html=1;fontColor=#000099;strokeColor=#000099;" parent="0KHWkNFv0CEmFGJm_ItT-163" vertex="1">
          <mxGeometry x="20" y="71" width="70" height="20" as="geometry" />
        </mxCell>
        <mxCell id="0KHWkNFv0CEmFGJm_ItT-167" value="" style="rounded=0;whiteSpace=wrap;html=1;fontColor=#000099;strokeColor=#000099;" parent="0KHWkNFv0CEmFGJm_ItT-163" vertex="1">
          <mxGeometry x="120" y="71" width="69" height="20" as="geometry" />
        </mxCell>
        <mxCell id="0KHWkNFv0CEmFGJm_ItT-168" value="" style="endArrow=none;dashed=1;html=1;rounded=0;dashPattern=1 2;strokeWidth=1;strokeColor=#000099;" parent="0KHWkNFv0CEmFGJm_ItT-163" edge="1">
          <mxGeometry width="50" height="50" relative="1" as="geometry">
            <mxPoint x="96" y="20.879999999999995" as="sourcePoint" />
            <mxPoint x="116" y="20.879999999999995" as="targetPoint" />
          </mxGeometry>
        </mxCell>
        <mxCell id="0KHWkNFv0CEmFGJm_ItT-169" value="" style="endArrow=none;dashed=1;html=1;rounded=0;dashPattern=1 2;strokeWidth=1;strokeColor=#000099;" parent="0KHWkNFv0CEmFGJm_ItT-163" edge="1">
          <mxGeometry width="50" height="50" relative="1" as="geometry">
            <mxPoint x="95" y="80.88" as="sourcePoint" />
            <mxPoint x="115" y="80.88" as="targetPoint" />
          </mxGeometry>
        </mxCell>
        <mxCell id="0KHWkNFv0CEmFGJm_ItT-170" value="" style="endArrow=none;dashed=1;html=1;rounded=0;dashPattern=1 2;strokeWidth=1;strokeColor=#000099;" parent="0KHWkNFv0CEmFGJm_ItT-163" edge="1">
          <mxGeometry width="50" height="50" relative="1" as="geometry">
            <mxPoint x="56.88000000000011" y="62" as="sourcePoint" />
            <mxPoint x="56.88000000000011" y="37" as="targetPoint" />
          </mxGeometry>
        </mxCell>
        <mxCell id="0KHWkNFv0CEmFGJm_ItT-171" value="" style="endArrow=none;dashed=1;html=1;rounded=0;dashPattern=1 2;strokeWidth=1;strokeColor=#000099;" parent="0KHWkNFv0CEmFGJm_ItT-163" edge="1">
          <mxGeometry width="50" height="50" relative="1" as="geometry">
            <mxPoint x="154.8800000000001" y="63" as="sourcePoint" />
            <mxPoint x="154.8800000000001" y="38" as="targetPoint" />
          </mxGeometry>
        </mxCell>
        <mxCell id="0KHWkNFv0CEmFGJm_ItT-172" value="&lt;font style=&quot;font-size: 10px;&quot;&gt;$$(q^{L-1})^Tk^{0}&lt;br&gt;$$&lt;/font&gt;" style="text;html=1;align=center;verticalAlign=middle;resizable=0;points=[];autosize=1;strokeColor=none;fillColor=none;fontColor=#000099;" parent="0KHWkNFv0CEmFGJm_ItT-163" vertex="1">
          <mxGeometry x="3" y="61" width="110" height="40" as="geometry" />
        </mxCell>
        <mxCell id="0KHWkNFv0CEmFGJm_ItT-173" value="&lt;font style=&quot;font-size: 10px;&quot;&gt;$$(q^{0})^Tk^{0}&lt;br&gt;$$&lt;/font&gt;" style="text;html=1;align=center;verticalAlign=middle;resizable=0;points=[];autosize=1;strokeColor=none;fillColor=none;fontColor=#000099;" parent="0KHWkNFv0CEmFGJm_ItT-163" vertex="1">
          <mxGeometry x="8" width="100" height="40" as="geometry" />
        </mxCell>
        <mxCell id="0KHWkNFv0CEmFGJm_ItT-174" value="&lt;font style=&quot;font-size: 10px;&quot;&gt;$$(q^{L-1})^Tk^{L-1}&lt;br&gt;$$&lt;/font&gt;" style="text;html=1;align=center;verticalAlign=middle;resizable=0;points=[];autosize=1;strokeColor=none;fillColor=none;fontColor=#000099;" parent="0KHWkNFv0CEmFGJm_ItT-163" vertex="1">
          <mxGeometry x="99.5" y="61" width="110" height="40" as="geometry" />
        </mxCell>
        <mxCell id="0KHWkNFv0CEmFGJm_ItT-175" value="&lt;font style=&quot;font-size: 10px;&quot;&gt;$$(q^{0})^Tk^{L-1}&lt;br&gt;$$&lt;/font&gt;" style="text;html=1;align=center;verticalAlign=middle;resizable=0;points=[];autosize=1;strokeColor=none;fillColor=none;fontColor=#000099;" parent="0KHWkNFv0CEmFGJm_ItT-199" vertex="1">
          <mxGeometry x="99.5" y="35" width="110" height="40" as="geometry" />
        </mxCell>
        <mxCell id="0KHWkNFv0CEmFGJm_ItT-177" value="" style="endArrow=none;html=1;rounded=0;strokeColor=#000099;" parent="0KHWkNFv0CEmFGJm_ItT-199" edge="1">
          <mxGeometry width="50" height="50" relative="1" as="geometry">
            <mxPoint x="200" y="115" as="sourcePoint" />
            <mxPoint x="200" y="25" as="targetPoint" />
          </mxGeometry>
        </mxCell>
        <mxCell id="0KHWkNFv0CEmFGJm_ItT-197" value="&lt;font color=&quot;#000099&quot;&gt;Set to&amp;nbsp;&lt;/font&gt;" style="text;html=1;strokeColor=none;fillColor=none;align=center;verticalAlign=middle;whiteSpace=wrap;rounded=0;" parent="0KHWkNFv0CEmFGJm_ItT-199" vertex="1">
          <mxGeometry x="90" width="60" height="30" as="geometry" />
        </mxCell>
        <mxCell id="0KHWkNFv0CEmFGJm_ItT-198" value="&lt;font style=&quot;font-size: 10px;&quot; color=&quot;#000099&quot;&gt;$$-\infty$$&lt;/font&gt;" style="text;html=1;strokeColor=none;fillColor=none;align=center;verticalAlign=middle;whiteSpace=wrap;rounded=0;" parent="0KHWkNFv0CEmFGJm_ItT-199" vertex="1">
          <mxGeometry x="120" width="60" height="30" as="geometry" />
        </mxCell>
        <mxCell id="0KHWkNFv0CEmFGJm_ItT-223" value="" style="group" parent="1" vertex="1" connectable="0">
          <mxGeometry x="491" y="338" width="70" height="30.82" as="geometry" />
        </mxCell>
        <mxCell id="0KHWkNFv0CEmFGJm_ItT-202" value="" style="shape=flexArrow;endArrow=classic;html=1;rounded=0;width=4.918032786885246;endSize=5.918032786885247;endWidth=7.718355280838484;strokeColor=none;fillColor=#000099;" parent="0KHWkNFv0CEmFGJm_ItT-223" edge="1">
          <mxGeometry width="50" height="50" relative="1" as="geometry">
            <mxPoint x="70" as="sourcePoint" />
            <mxPoint x="70" y="30.819999999999997" as="targetPoint" />
          </mxGeometry>
        </mxCell>
        <mxCell id="0KHWkNFv0CEmFGJm_ItT-222" value="&lt;div style=&quot;text-align: center;&quot;&gt;&lt;span style=&quot;background-color: initial;&quot;&gt;&lt;font color=&quot;#000099&quot;&gt;Add Mask&lt;/font&gt;&lt;/span&gt;&lt;/div&gt;" style="text;whiteSpace=wrap;html=1;" parent="0KHWkNFv0CEmFGJm_ItT-223" vertex="1">
          <mxGeometry width="70" height="28.135631113181155" as="geometry" />
        </mxCell>
        <mxCell id="0KHWkNFv0CEmFGJm_ItT-225" value="The decoder first processes the input to each layer with a masked multi-headed self-attention layer. It has similiar set of operations as the one used in the encoder layer with an addition of a mask to the output of the scaled-dot-product as shown below.&amp;nbsp;&lt;br&gt;&lt;br&gt;The design choice to add a mask is to induce auto-regressivity in the decoder. Essentially, any predicted token index solely depends on the tokens appearing previously in a sentence. The model needs to be autoregressive as the next token in the target sentence is predicted based on the previous tokens so far. Mathematically, masking is performed by adding an upper triangular matrix with&amp;nbsp; &amp;nbsp; &amp;nbsp; &amp;nbsp;. This causes the downstream softmax to compute to 0 at these indices." style="text;html=1;strokeColor=none;fillColor=none;align=left;verticalAlign=middle;whiteSpace=wrap;rounded=0;" parent="1" vertex="1">
          <mxGeometry x="95" y="103" width="570" height="140" as="geometry" />
        </mxCell>
        <mxCell id="0KHWkNFv0CEmFGJm_ItT-226" value="&lt;font style=&quot;font-size: 10px;&quot;&gt;$$-\infty$$&lt;/font&gt;" style="text;html=1;strokeColor=none;fillColor=none;align=center;verticalAlign=middle;whiteSpace=wrap;rounded=0;" parent="1" vertex="1">
          <mxGeometry x="501" y="201" width="60" height="30" as="geometry" />
        </mxCell>
      </root>
    </mxGraphModel>
  </diagram>
</mxfile>
